<svg width="482" height="500" viewBox="0 0 482 500" fill="none" xmlns="http://www.w3.org/2000/svg">
<mask id="mask0_32_657" style="mask-type:luminance" maskUnits="userSpaceOnUse" x="114" y="94" width="111" height="273">
<path d="M114.395 94.6667H224.933V366.667H114.395V94.6667Z" fill="white"/>
</mask>
<g mask="url(#mask0_32_657)">
<mask id="mask1_32_657" style="mask-type:luminance" maskUnits="userSpaceOnUse" x="114" y="93" width="176" height="293">
<path d="M117.131 93.0781L289.677 94.8958L286.83 385.88L114.279 384.062L117.131 93.0781Z" fill="white"/>
</mask>
<g mask="url(#mask1_32_657)">
<mask id="mask2_32_657" style="mask-type:luminance" maskUnits="userSpaceOnUse" x="114" y="93" width="176" height="293">
<path d="M117.131 93.0781L289.677 94.8958L286.83 385.88L114.279 384.062L117.131 93.0781Z" fill="white"/>
</mask>
<g mask="url(#mask2_32_657)">
<path d="M115.665 243.177C119.295 250.214 124.055 256.62 129.683 262.052C125.32 245.12 122.875 226.141 125.446 208.708C126.023 204.813 129.834 196.891 128.423 193.255C130.522 198.661 132.615 204.068 134.719 209.479C134.629 192.823 140.071 176.099 150.038 163.021C154.476 157.203 160.129 150.891 158.96 143.573C163.202 148.401 164.678 153.922 166.129 160.036C172.762 148.646 168.359 130.776 161.902 120.411C158.206 114.484 153.271 109.385 147.808 105.198C144.013 102.281 135.186 95.2448 130.18 95.7188C154.175 93.4479 178.28 104.167 195.863 121.25C204.368 129.51 211.452 139.333 216.518 150.224C218.979 155.516 220.942 161.026 222.247 166.75C222.96 169.875 223.487 173.047 223.824 176.24C223.984 177.781 223.432 183.01 224.261 184.104C222.885 182.286 221.509 180.469 220.138 178.656C220.856 187.667 220.108 196.802 217.99 205.573C216.021 213.703 211.824 220.844 209.685 228.844C210.453 225.974 209.329 222.672 206.999 220.932C201.546 242.026 191.008 260.516 177.788 277.302C180.107 274.354 180.208 269.75 178.014 266.698C169.744 285.724 167.455 307.318 170.071 327.922C171.773 341.354 175.132 356.328 184.29 366.552C184.29 366.552 178.852 361.969 176.332 359.875C145.202 334.031 121.193 288.344 115.665 243.177Z" fill="#AE4B2F"/>
</g>
</g>
</g>
<mask id="mask3_32_657" style="mask-type:luminance" maskUnits="userSpaceOnUse" x="183" y="265" width="104" height="121">
<path d="M183.803 265.333H286.629V385.333H183.803V265.333Z" fill="white"/>
</mask>
<g mask="url(#mask3_32_657)">
<mask id="mask4_32_657" style="mask-type:luminance" maskUnits="userSpaceOnUse" x="114" y="93" width="176" height="293">
<path d="M117.131 93.0781L289.677 94.8958L286.83 385.88L114.279 384.062L117.131 93.0781Z" fill="white"/>
</mask>
<g mask="url(#mask4_32_657)">
<mask id="mask5_32_657" style="mask-type:luminance" maskUnits="userSpaceOnUse" x="114" y="93" width="176" height="293">
<path d="M117.131 93.0781L289.677 94.8958L286.83 385.88L114.279 384.062L117.131 93.0781Z" fill="white"/>
</mask>
<g mask="url(#mask5_32_657)">
<mask id="mask6_32_657" style="mask-type:luminance" maskUnits="userSpaceOnUse" x="183" y="265" width="105" height="121">
<path d="M185.153 265.646L287.674 266.724L286.509 385.375L183.994 384.297L185.153 265.646Z" fill="white"/>
</mask>
<g mask="url(#mask6_32_657)">
<path d="M185.982 333.625C187.227 334.531 188.929 335.406 190.46 335.344C190.405 333.453 189.06 331.135 188.472 329.271C187.799 327.125 187.217 324.948 186.735 322.745C185.736 318.214 185.143 313.578 184.958 308.932C184.355 293.786 187.95 278.385 196.817 266.167C196.224 266.984 196.526 270.016 196.465 271.068C196.365 272.984 196.295 274.906 196.269 276.833C196.224 280.495 196.32 284.156 196.576 287.813C197.073 294.964 198.022 302.328 199.995 309.219C203.55 321.651 208.209 333.286 215.685 343.802C231.214 365.646 254.938 379.5 281.162 380.995C282.954 381.094 284.752 381.141 286.554 381.125C284.33 381.141 281.654 382.365 279.45 382.813C276.924 383.328 274.384 383.75 271.828 384.094C266.727 384.766 261.58 385.094 256.434 385.057C246.538 384.99 236.687 383.901 227.022 381.656C221.097 380.276 215.037 378.359 210.524 373.932C212.411 373.406 214.405 373.302 216.333 373.625C212.969 373.057 208.691 369.198 206.07 367.078C202.696 364.349 199.628 361.208 196.942 357.755C191.51 350.766 187.629 342.453 185.982 333.625Z" fill="#231E20"/>
</g>
</g>
</g>
</g>
<mask id="mask7_32_657" style="mask-type:luminance" maskUnits="userSpaceOnUse" x="129" y="94" width="96" height="113">
<path d="M129.819 94.6667H224.933V206.667H129.819V94.6667Z" fill="white"/>
</mask>
<g mask="url(#mask7_32_657)">
<mask id="mask8_32_657" style="mask-type:luminance" maskUnits="userSpaceOnUse" x="114" y="93" width="176" height="293">
<path d="M117.131 93.0781L289.677 94.8958L286.83 385.88L114.279 384.062L117.131 93.0781Z" fill="white"/>
</mask>
<g mask="url(#mask8_32_657)">
<mask id="mask9_32_657" style="mask-type:luminance" maskUnits="userSpaceOnUse" x="114" y="93" width="176" height="293">
<path d="M117.131 93.0781L289.677 94.8958L286.83 385.88L114.279 384.062L117.131 93.0781Z" fill="white"/>
</mask>
<g mask="url(#mask9_32_657)">
<path d="M220.138 178.656C221.509 180.469 222.885 182.286 224.261 184.104C223.432 183.01 223.984 177.781 223.824 176.24C223.487 173.047 222.96 169.875 222.247 166.75C220.942 161.026 218.979 155.516 216.518 150.224C211.452 139.333 204.368 129.51 195.863 121.25C178.28 104.167 154.175 93.4479 130.18 95.7188C135.186 95.2448 144.013 102.281 147.808 105.198C153.271 109.385 158.211 114.484 161.902 120.411C161.902 120.411 217.804 141 217.99 205.573C220.108 196.802 220.856 187.667 220.138 178.656Z" fill="#231F20"/>
</g>
</g>
</g>
<mask id="mask10_32_657" style="mask-type:luminance" maskUnits="userSpaceOnUse" x="114" y="242" width="72" height="125">
<path d="M114.395 242.667H185.088V366.667H114.395V242.667Z" fill="white"/>
</mask>
<g mask="url(#mask10_32_657)">
<mask id="mask11_32_657" style="mask-type:luminance" maskUnits="userSpaceOnUse" x="114" y="93" width="176" height="293">
<path d="M117.131 93.0781L289.677 94.8958L286.83 385.88L114.279 384.063L117.131 93.0781Z" fill="white"/>
</mask>
<g mask="url(#mask11_32_657)">
<mask id="mask12_32_657" style="mask-type:luminance" maskUnits="userSpaceOnUse" x="114" y="93" width="176" height="293">
<path d="M117.131 93.0781L289.677 94.8958L286.83 385.88L114.279 384.063L117.131 93.0781Z" fill="white"/>
</mask>
<g mask="url(#mask12_32_657)">
<path d="M176.332 359.875C178.852 361.969 184.29 366.552 184.29 366.552C175.317 356.542 171.913 341.964 170.176 328.755C149.5 306.406 118.758 269.292 115.665 243.177C121.193 288.344 145.207 334.031 176.332 359.875Z" fill="#231F20"/>
</g>
</g>
</g>
<mask id="mask13_32_657" style="mask-type:luminance" maskUnits="userSpaceOnUse" x="204" y="168" width="159" height="204">
<path d="M204.368 168H362.464V372H204.368V168Z" fill="white"/>
</mask>
<g mask="url(#mask13_32_657)">
<mask id="mask14_32_657" style="mask-type:luminance" maskUnits="userSpaceOnUse" x="201" y="166" width="169" height="207">
<path d="M208.736 166.234L369.619 172.224L362.71 372.094L201.823 366.109L208.736 166.234Z" fill="white"/>
</mask>
<g mask="url(#mask14_32_657)">
<mask id="mask15_32_657" style="mask-type:luminance" maskUnits="userSpaceOnUse" x="201" y="166" width="169" height="207">
<path d="M208.666 168.234L201.893 364.109C201.853 365.214 202.686 366.141 203.75 366.182L360.782 372.026C361.846 372.063 362.74 371.203 362.775 370.099L369.548 174.224C369.589 173.12 368.755 172.193 367.696 172.151L210.664 166.307C209.6 166.271 208.706 167.13 208.666 168.234Z" fill="white"/>
</mask>
<g mask="url(#mask15_32_657)">
<mask id="mask16_32_657" style="mask-type:luminance" maskUnits="userSpaceOnUse" x="201" y="166" width="169" height="207">
<path d="M208.736 166.234L369.619 172.224L362.71 372.094L201.823 366.109L208.736 166.234Z" fill="white"/>
</mask>
<g mask="url(#mask16_32_657)">
<mask id="mask17_32_657" style="mask-type:luminance" maskUnits="userSpaceOnUse" x="201" y="166" width="169" height="207">
<path d="M208.736 166.234L369.619 172.224L362.71 372.094L201.823 366.109L208.736 166.234Z" fill="white"/>
</mask>
<g mask="url(#mask17_32_657)">
<path d="M329.949 370.875C329.698 370.865 329.487 370.771 329.281 370.677C329.156 370.625 329.071 370.578 328.945 370.531C321.6 368.901 314.982 367.115 308.711 365.042C299.342 361.974 288.442 358.016 278.561 351.547C265.12 342.802 256.71 331.609 252.884 317.427L252.889 317.385C251.79 321.026 251.323 325.969 251.755 329.365C251.885 330.422 252.402 331.406 252.879 332.344L253.075 332.745C255.967 338.422 259.904 343.219 262.951 346.755C269.177 353.875 276.763 360.604 286.875 367.87L287.699 368.469L287.357 368.635C287.227 368.719 287.056 368.755 286.931 368.75C286.675 368.74 286.469 368.599 286.263 368.505C286.223 368.458 286.137 368.411 286.097 368.411C281.774 366.146 277.632 363.755 273.781 361.328C263.684 354.901 254.817 347.198 247.467 338.328C240.935 330.453 236.737 323.365 234.327 315.99C232.721 311.062 232.189 306.875 232.671 302.812C232.841 301.505 233.137 300.328 233.68 299.255C226.716 303.818 219.205 315.516 218.567 329.094L218.14 329.167C216.86 325.87 215.946 322.984 215.198 320.062C213.456 313.068 212.783 306.724 213.245 300.729C213.943 291.589 216.99 282.927 222.297 275.052C225.415 270.432 229.372 266.062 234.824 261.26L235.783 260.422C237.4 258.99 239.012 257.557 240.749 256.219C233.479 257.354 226.831 260.089 220.972 264.344C215.032 268.688 209.856 273.974 205.101 280.599L204.86 280.328C209.901 267.839 216.458 257.948 224.979 250.016C232.846 242.719 242.506 237.245 255.259 232.938C253.954 232.802 252.684 232.708 251.418 232.661C239.172 232.208 228.739 235.417 219.536 242.401L219.36 242.526L219.24 242.344C219.2 242.302 219.159 242.255 219.119 242.208L218.994 242.073L219.129 241.901C222.207 238.505 225.953 235.312 230.898 231.812C237.787 226.979 245.7 223.151 255.149 220.167C256.218 219.812 256.786 219.307 257.288 218.229C262.213 206.745 267.309 195.089 272.22 183.865L274.333 179.073C275.297 176.875 276.261 174.714 277.225 172.469L278.832 168.844L279.033 169.161C280.032 170.734 281.081 172.219 282.131 173.661C283.461 175.51 284.711 177.266 285.831 179.198C285.911 179.286 286.162 179.427 286.162 179.427C288.708 182.771 291.168 186.281 293.548 189.661C294.271 190.74 295.039 191.776 295.802 192.859C297.5 195.245 299.232 197.724 300.884 200.109L302.937 203.036C303.138 203.354 303.299 203.625 303.499 203.896C304.418 205.375 305.302 206.766 306.663 207.828C307.526 208.474 308.395 209.12 309.218 209.766C312.02 211.844 314.907 214.01 317.663 216.266C318.567 217.042 319.516 217.74 320.545 218.479C320.917 218.755 321.288 219.031 321.7 219.354C321.7 219.312 321.7 219.266 321.7 219.266C321.71 219.005 321.76 218.786 321.81 218.568C323.181 210.766 324.933 201.578 327.368 192.365C327.614 191.411 327.855 190.5 328.101 189.542C328.93 186.37 329.758 183.109 330.883 179.995L331.305 180.099L330.828 184.073C330.401 187.786 329.934 191.495 329.472 195.167C329.231 197.219 328.945 199.312 328.709 201.365C328.348 204.38 327.991 207.349 327.635 210.365C327.454 211.979 327.268 213.594 327.087 215.167C326.781 217.875 326.475 220.672 326.083 223.464C325.968 224.25 326.123 224.698 326.61 225.286C329.824 229.047 333.388 233.474 335.658 238.823C336.908 241.766 337.691 244.865 338.038 248.302C338.344 251.604 338.063 254.839 337.787 257.99L337.772 258.339C337.43 262.188 338.464 265.208 340.955 267.885C344.871 272.068 348.456 275.932 351.835 279.745C353.221 281.286 354.647 282.828 356.078 284.286C358.116 286.427 360.24 288.651 362.143 291.005L362.268 291.141L362.178 291.271C361.907 291.698 361.485 291.771 361.144 291.802C361.058 291.797 360.973 291.839 360.888 291.839L359.698 292.099C357.865 292.516 355.947 292.922 354.034 293.203C353.226 293.349 352.919 293.646 352.809 294.344L352.804 294.562L352.593 294.51C350.284 293.984 348.34 292.729 346.438 291.516C344.741 290.401 343.094 289.156 341.487 287.911C340.95 287.495 340.418 287.083 339.84 286.667C338.274 285.469 336.752 284.182 335.271 282.943C334.001 281.885 332.726 280.74 331.41 279.729L330.833 279.266C328.117 277.151 325.315 274.938 321.976 273.76C319.928 273.026 317.744 272.641 315.64 272.208C314.967 272.099 314.299 271.943 313.626 271.828C307.913 270.651 303.163 267.49 299.031 262.115C297.454 260.083 295.747 258.135 294.075 256.271C293.302 255.411 292.529 254.505 291.756 253.641C291.469 253.323 291.223 253.141 290.887 253.125C290.084 253.099 289.326 253.026 288.608 253C287.046 252.943 285.013 252.953 283.009 253.406C277.381 254.729 272.551 256.26 268.218 258.12C265.426 259.328 262.58 260.891 259.206 263.089C258.729 263.422 258.211 263.714 257.735 264.047C256.524 264.833 255.229 265.62 254.094 266.583C253.879 266.755 253.703 266.833 253.577 266.828C253.281 266.818 253.166 266.505 253.05 266.24C249.3 270.75 246.192 274.932 243.601 279.005C245.162 277.792 246.94 276.63 249.139 275.396C254.617 272.307 259.1 270.984 263.704 271.156L263.915 271.161C266.365 271.297 268.585 271.906 270.613 273.125L270.904 273.307L270.643 273.521C270.206 273.854 269.774 274.188 269.338 274.521C268.429 275.234 267.515 275.901 266.606 276.573C263.308 278.99 260.33 281.865 257.614 284.615C255.335 286.901 253.557 289.464 251.594 292.375C248.255 297.297 246.377 302.578 245.926 308.396L246.302 308.411L246.342 308.589C246.483 309.38 246.623 310.13 246.724 310.927C247.542 303.193 251.679 297.333 259.085 293.49C261.023 292.464 263.112 292.016 265.155 291.521C265.497 291.443 265.798 291.37 266.139 291.292C269.418 290.536 272.767 290.401 275.985 290.297C276.874 290.286 277.763 290.234 278.691 290.182C282.623 289.141 286.78 288.682 291.088 288.844C293.367 288.927 295.727 289.193 298.127 289.589C306.11 290.984 313.867 294.208 321.76 299.505L321.8 299.552C321.966 299.646 322.212 299.828 322.197 300.312L322.187 300.573L321.981 300.521C321.263 300.406 320.55 300.203 319.882 300.047C318.873 299.792 317.869 299.578 316.815 299.453C315.846 299.328 314.917 299.25 314.033 299.219C305.628 298.906 299.091 301.953 294.085 308.521C294 308.604 293.915 308.688 293.869 308.776L293.779 308.906C291.56 311.849 290.295 315.443 290.069 319.557C289.757 324.943 290.847 330.026 293.392 334.771L293.709 335.354C294.703 337.234 295.732 339.203 297.158 340.792C299.965 343.964 302.42 346.38 304.971 348.406C310.278 352.682 316.483 356.734 324.446 361.198C324.492 361.198 324.532 361.245 324.572 361.245C324.783 361.339 325.114 361.443 325.265 362.016L325.335 362.411L324.958 362.312C318.773 360.24 312.266 357.583 304.694 354.01C313.21 360.865 322.674 366.042 330.943 370.214L331.234 370.354L330.973 370.562C330.461 370.807 330.2 370.885 329.949 370.875ZM296.927 244.797C297.253 245.031 297.59 245.172 297.881 245.318C298.087 245.411 298.298 245.505 298.504 245.604C304.022 248.656 309.123 252.797 313.641 257.88C316.087 260.599 318.778 263.464 322.087 265.651L322.333 265.792C323.076 266.302 323.824 266.766 324.738 267.151C324.743 267.109 324.702 267.062 324.702 267.021C324.627 266.708 324.552 266.49 324.476 266.224L324.361 265.865C323.241 262.755 322.127 259.51 320.711 256.432C318.903 252.505 316.323 250.036 312.853 248.854C307.717 247.083 302.465 245.969 296.927 244.797ZM271.446 217.219C271.441 217.443 271.436 217.615 271.517 217.75C273.088 222.37 275.965 226.031 280.102 228.688C283.783 231.062 287.925 232.354 291.866 233.38C294.045 233.943 296.224 234.464 298.408 234.938C300.843 235.51 303.359 236.089 305.829 236.75C309.519 237.766 313.365 239.005 316.84 241.281C317.789 241.932 318.542 242.224 319.215 242.25C320.189 242.286 321.012 241.656 321.866 240.24C322.538 239.083 323.362 238.542 324.331 238.578C324.627 238.589 324.963 238.646 325.34 238.792C325.345 238.703 325.305 238.615 325.225 238.479C325.184 238.391 325.144 238.302 325.104 238.255C323.236 233.583 319.938 229.995 316.945 227.12C314.862 225.109 312.512 223.266 310.293 221.516C308.274 219.906 306.13 218.292 304.207 216.464C302.239 214.641 300.356 212.812 299.001 210.479C297.761 208.375 296.525 206.224 295.371 204.12C294.572 202.729 293.779 201.292 292.981 199.906C290.626 195.823 288.271 191.745 285.916 187.708L283.481 183.495C283.195 183.307 283.2 183.047 283.17 182.823L280.097 177.448C280.394 179.917 280.725 182.516 281.232 185.036C282.532 191.354 283.968 196.411 285.801 200.911C285.796 200.953 285.836 201 285.836 201.042C285.916 201.219 286.032 201.443 285.942 201.703C285.891 201.88 285.761 201.964 285.505 202.042C284.395 202.391 283.24 202.786 282.05 202.875C283.773 210.615 286.188 217.724 289.506 224.604L289.662 224.917L289.326 224.948C288.688 224.969 288.055 224.99 287.463 224.969C281.97 224.766 277.22 222.698 273.048 218.682L271.446 217.219ZM341.668 308.448C338.711 308.339 335.608 307.521 331.902 305.849C330.903 305.417 330.08 304.729 329.216 304.083C328.925 303.849 328.639 303.62 328.348 303.391C326.701 302.146 325.054 300.901 323.402 299.651C319.862 296.979 316.192 294.167 312.477 291.615C309.544 289.573 306.647 287.667 303.133 285.385C302.761 285.156 302.435 284.792 302.109 284.474C301.622 283.927 301.13 283.427 300.417 283.312L300.472 282.875C300.683 282.885 300.939 282.891 301.15 282.901C304.694 283.031 307.958 284.078 310.463 284.958C317.939 287.651 324.07 292.615 329.613 297.516C332.686 300.26 335.798 302 339.107 302.87C340.327 303.177 341.547 303.354 342.853 303.406C345.474 303.5 348.28 303.078 351.87 301.984C352.081 301.906 352.297 301.823 352.553 301.745C353.07 301.547 353.582 301.349 354.175 301.37C354.26 301.37 354.345 301.375 354.386 301.375L354.426 301.38L354.466 301.422C354.802 301.609 355.043 301.927 355.289 302.156C355.696 302.568 356.063 302.974 356.61 303.083L357.112 303.188L356.68 303.479C352.432 306.438 348.235 308.036 343.822 308.396C343.104 308.458 342.386 308.474 341.668 308.448Z" fill="#231F20"/>
</g>
</g>
</g>
</g>
</g>
<mask id="mask18_32_657" style="mask-type:luminance" maskUnits="userSpaceOnUse" x="269" y="176" width="98" height="128">
<path d="M269.92 176H366.32V304H269.92V176Z" fill="white"/>
</mask>
<g mask="url(#mask18_32_657)">
<mask id="mask19_32_657" style="mask-type:luminance" maskUnits="userSpaceOnUse" x="201" y="166" width="169" height="207">
<path d="M208.736 166.234L369.619 172.224L362.71 372.094L201.823 366.109L208.736 166.234Z" fill="white"/>
</mask>
<g mask="url(#mask19_32_657)">
<mask id="mask20_32_657" style="mask-type:luminance" maskUnits="userSpaceOnUse" x="201" y="166" width="169" height="207">
<path d="M208.666 168.234L201.893 364.109C201.853 365.214 202.686 366.141 203.75 366.182L360.782 372.026C361.846 372.063 362.74 371.203 362.775 370.099L369.548 174.224C369.589 173.12 368.755 172.193 367.696 172.151L210.664 166.307C209.6 166.271 208.706 167.13 208.666 168.234Z" fill="white"/>
</mask>
<g mask="url(#mask20_32_657)">
<mask id="mask21_32_657" style="mask-type:luminance" maskUnits="userSpaceOnUse" x="201" y="166" width="169" height="207">
<path d="M208.736 166.234L369.619 172.224L362.71 372.094L201.823 366.109L208.736 166.234Z" fill="white"/>
</mask>
<g mask="url(#mask21_32_657)">
<mask id="mask22_32_657" style="mask-type:luminance" maskUnits="userSpaceOnUse" x="201" y="166" width="169" height="207">
<path d="M208.736 166.234L369.619 172.224L362.71 372.094L201.823 366.109L208.736 166.234Z" fill="white"/>
</mask>
<g mask="url(#mask22_32_657)">
<path d="M356.555 303.521C355.837 303.406 355.43 302.906 354.983 302.453C354.737 302.177 354.491 301.953 354.205 301.766L354.16 301.719L353.964 301.271C353.261 299.667 352.558 297.974 352.327 296.125C352.292 295.859 352.302 295.641 352.352 295.38C352.362 295.026 352.417 294.724 352.297 294.453L352.257 294.411L352.262 294.365C352.377 293.448 352.814 292.984 353.833 292.844C355.706 292.563 357.624 292.109 359.497 291.74L360.692 291.479C360.777 291.438 360.862 291.443 360.988 291.443C361.284 291.411 361.58 291.38 361.721 291.078L361.811 290.906L362.057 291.047C363.262 291.661 364.513 292.276 364.919 293.875C365.296 295.292 365.08 296.688 364.231 297.969C362.394 300.885 359.833 302.766 356.64 303.479H356.595L356.555 303.521ZM325.014 267.734C323.844 267.339 322.98 266.734 322.112 266.177L321.861 266.036C318.512 263.807 315.78 260.943 313.335 258.172C308.862 253.094 303.801 249 298.323 245.99C298.157 245.896 297.946 245.802 297.741 245.703C297.198 245.464 296.576 245.177 296.049 244.547L295.597 244.047L296.269 244.203C302.104 245.427 307.606 246.599 312.999 248.422C316.549 249.651 319.21 252.208 321.102 256.224C322.518 259.307 323.673 262.552 324.788 265.708L324.903 266.062C324.979 266.328 325.059 266.552 325.174 266.859C325.21 267.036 325.29 267.219 325.325 267.396L325.435 267.792L325.014 267.734ZM319.159 242.688C318.441 242.661 317.608 242.323 316.574 241.625C313.185 239.349 309.334 238.151 305.689 237.141C303.218 236.479 300.703 235.901 298.268 235.328C296.129 234.854 293.905 234.333 291.726 233.771C287.784 232.745 283.602 231.448 279.836 229.026C275.614 226.323 272.702 222.578 271.09 217.865C271.01 217.646 271.02 217.38 271.03 217.12C271.035 216.984 271.04 216.854 271.045 216.677L271.02 216.151L273.229 218.25C277.366 222.224 281.99 224.24 287.398 224.438C287.905 224.458 288.407 224.474 288.919 224.453C285.645 217.573 283.23 210.422 281.548 202.682L281.473 202.417L281.729 202.38C283.004 202.297 284.199 201.901 285.354 201.552C285.48 201.51 285.485 201.469 285.525 201.469C285.525 201.427 285.49 201.292 285.45 201.203C285.409 201.156 285.409 201.115 285.369 201.068C283.542 196.526 282.106 191.474 280.805 185.104C280.228 182.234 279.866 179.24 279.54 176.464L279.927 176.344L283.552 182.708V182.797C283.542 183.016 283.582 183.104 283.662 183.151L283.702 183.198L286.218 187.5C288.572 191.583 290.927 195.615 293.282 199.698C294.08 201.089 294.879 202.521 295.677 203.911C296.872 206.016 298.067 208.167 299.302 210.276C300.617 212.557 302.505 214.339 304.428 216.167C306.356 217.948 308.455 219.609 310.473 221.172C312.738 222.927 315.042 224.766 317.171 226.776C320.199 229.698 323.543 233.286 325.41 238.047C325.451 238.094 325.486 238.182 325.486 238.229C325.606 238.453 325.807 238.766 325.581 239.151L325.491 239.323L325.325 239.229C324.948 239.042 324.617 238.984 324.276 238.974C323.472 238.943 322.779 239.401 322.197 240.432C321.208 242.062 320.299 242.729 319.159 242.688ZM321.595 219.964C321.097 219.594 320.646 219.229 320.149 218.901C319.159 218.161 318.215 217.427 317.267 216.646C314.555 214.396 311.668 212.224 308.867 210.146C307.998 209.5 307.135 208.854 306.311 208.208C304.87 207.104 303.946 205.62 303.022 204.182C302.867 203.911 302.666 203.599 302.46 203.328L302.34 203.146C302.34 203.146 314.631 192.552 318.21 189.438C320.651 187.333 323.136 185.193 325.576 183.089L331.501 178L331.395 178.609C331.295 179.177 331.194 179.609 331.094 180.089C329.969 183.25 329.136 186.51 328.307 189.635C328.066 190.594 327.82 191.552 327.574 192.464C325.144 201.672 323.387 210.865 322.021 218.62C321.971 218.839 321.961 219.057 321.956 219.276C321.951 219.406 321.946 219.583 321.896 219.755L321.841 220.151L321.595 219.964Z" fill="#AE4B2F"/>
</g>
</g>
</g>
</g>
</g>
<path fill-rule="evenodd" clip-rule="evenodd" d="M70.9594 202.562C71.6874 201.948 71.6422 209.37 71.3561 217.068C71.0347 220.927 71.3862 224.849 71.4765 227.917C71.5619 230.979 71.6121 233.115 71.6171 233.411C71.0347 237.307 72.9276 247.87 73.5502 253.88C73.9117 256.891 74.5142 258.667 74.1426 257.984C73.746 256.969 73.4246 255.927 73.1836 254.865C72.8422 253.057 72.3502 250.385 71.6673 246.729C70.8289 242.214 69.6339 237.536 69.7343 233.583C69.7343 233.042 69.5285 230.958 69.2724 228.099C69.1017 225.245 68.4892 221.604 68.7854 217.958C69.1117 210.677 69.3879 203.38 70.9594 202.562Z" fill="#231E20"/>
<path fill-rule="evenodd" clip-rule="evenodd" d="M168.248 371.807C167.711 369.25 185.63 377.87 173.319 374.01C172.591 373.771 168.429 372.641 168.248 371.807Z" fill="#231E20"/>
<mask id="mask23_32_657" style="mask-type:luminance" maskUnits="userSpaceOnUse" x="56" y="56" width="386" height="376">
<path d="M56.5547 56H441.512V432H56.5547V56Z" fill="white"/>
</mask>
<g mask="url(#mask23_32_657)">
<path fill-rule="evenodd" clip-rule="evenodd" d="M63.3077 275.859C64.7135 281.255 66.8273 286.542 68.8206 291.922C69.7394 294.635 71.085 297.214 72.4205 299.797L76.3619 307.599L78.315 311.547C79.0129 312.844 79.8263 314.073 80.5643 315.344C82.0756 317.875 83.5467 320.448 84.9827 323.057C87.6286 328.448 91.083 333.313 93.8595 338.844C97.605 345.948 91.8512 343.786 93.6436 347.724C96.7766 353.38 100.798 359.396 105.94 364.708C108.586 367.292 111.382 369.839 114.264 372.344C115.725 373.573 117.126 374.896 118.682 376.021L123.447 379.276L133.032 385.604C136.321 387.49 139.665 389.182 142.863 390.969C149.154 394.729 155.571 397.443 161.109 400.635C162.911 401.568 164.839 404.016 167.209 406.031C169.533 408.146 172.064 410.422 174.554 411.813C182.156 416.469 190.701 418.385 199.232 420.771C203.585 421.625 208.018 422.203 212.502 422.953L219.295 424.047L226.264 424.703L233.579 425.427C236.145 425.734 238.716 425.849 241.296 425.755C246.563 425.656 252.081 425.5 257.775 425.24L275.227 422.688C281.162 421.599 287.096 419.76 293.202 418.245C317.367 411.12 341.582 398.495 362.464 382.797C367.455 379.365 369.604 377.49 370.211 377.344C370.814 377.193 369.774 378.651 367.595 380.958C365.321 383.109 361.932 386.094 358.151 389.302C356.243 390.88 354.3 392.62 352.227 394.151L345.9 398.375C315.77 418.302 284.044 427.833 253.115 428.792C245.383 429.052 237.661 428.813 229.954 428.063C222.252 427.318 214.621 426.073 207.064 424.328C199.513 422.583 192.092 420.354 184.807 417.641C177.527 414.927 170.432 411.75 163.539 408.109C163.247 407.948 156.7 404.589 150.274 401.484C146.995 400.063 144.033 398.135 141.733 396.995C139.439 395.854 137.942 395.234 137.957 395.76C137.957 396.406 140.137 398.297 143.531 400.849C145.454 402.328 147.477 403.635 149.601 404.771L157.007 408.938C162.083 411.995 167.821 414.229 172.737 416.318L179.435 419.13C181.383 419.964 183.11 420.365 184.31 420.818C208.52 429.823 237.937 433.469 266.134 429.88C294.376 426.516 320.846 416.193 341.191 404.01C360.275 393.042 375.99 379.036 389.491 364.453C403.203 349.917 413.395 333.474 421.896 316.917L427.559 304.208C428.513 302.115 429.316 299.958 429.979 297.75L432.133 291.214C435.246 282.63 436.923 273.641 438.665 264.786L439.298 261.474L439.644 258.094L440.287 251.359L440.844 244.63C441.08 242.391 441.156 240.146 441.075 237.891C440.849 228.854 440.849 219.901 439.132 210.984C438.801 208.87 438.289 206.464 437.626 203.875L436.531 199.891C436.049 198.536 435.467 197.177 434.895 195.771C432.52 190.229 429.869 184.474 426.871 179.469C425.159 176.917 422.644 171.375 419.164 167.755C415.68 164.135 411.287 162.552 405.628 167.12C404.478 168.021 405.021 170.943 406.582 175.052C408.149 179.156 410.915 184.484 413.009 190.557C414.194 193.599 415.424 196.745 416.639 199.865C417.854 202.99 418.577 206.25 419.501 209.354C421.193 215.526 422.689 221.229 422.689 225.203C422.935 231.854 423.633 238.661 422.955 245.26C422.518 251.88 422.272 258.479 420.937 264.615C419.104 277.083 415.419 288.063 412.095 296.578C408.575 303.99 405.558 311.62 401.285 318.521C399.247 322.026 397.399 325.641 395.215 329.021L388.397 338.964C387.237 340.599 386.172 342.302 384.947 343.875L381.131 348.474L373.53 357.635L365.185 365.984C362.414 368.771 359.672 371.578 356.57 373.938C332.891 394.208 304.855 408.005 276.296 413.62C248.908 418.958 220.244 416.422 193.297 407.177C189.948 405.943 186.504 405.021 183.225 403.51L173.389 398.99L168.479 396.693L163.739 393.922C160.606 392.073 157.443 390.219 154.265 388.349C142.065 380.021 130.075 370.87 119.616 359.432C117.372 357.01 114.982 354.719 112.808 352.172L106.482 344.245C101.998 339.156 98.5088 333.104 94.5524 327.385C92.4888 324.583 90.9574 321.38 89.2453 318.292C87.5332 315.198 85.8462 312.089 84.1341 308.953C82.7183 305.672 81.2923 302.37 79.8564 299.052C78.4857 295.708 76.8087 292.505 75.8247 288.958C66.1947 261.505 61.8065 230.844 65.4667 200.557C67.5051 180.75 74.1125 159.135 84.3149 139.073C94.457 118.922 108.149 100.427 122.975 84.7656C125.355 81.7604 128.659 79.4479 131.686 76.7656C134.835 74.25 137.782 71.3958 141.015 69.3802C147.331 65.1094 152.513 60.6198 155.36 57.4219C155.997 56.6146 154.386 57.1927 151.469 58.5417C148.677 60.1458 144.71 62.7344 140.403 65.4583C135.959 68 131.822 71.651 127.976 74.3802C124.135 77.1094 120.872 79.349 119.124 80.4375L110.157 89.026C107.15 91.9167 104.614 95.3542 101.797 98.5156L97.6552 103.385C96.3097 105.047 95.1649 106.885 93.8997 108.63C91.4595 112.193 88.8838 115.693 86.5291 119.365C77.4112 134.307 70.1913 150.797 64.8943 168.094C59.994 185.542 57.4635 203.724 56.9363 221.969C56.9463 240.203 59.0701 258.167 63.3077 275.859ZM88.6529 119.563C89.8378 119.385 88.9592 125.828 87.4077 126.063C86.1676 126.292 87.0763 119.792 88.6529 119.563ZM84.355 127.844C84.355 127.844 83.7827 135.37 82.4722 135.604C82.3116 135.682 79.5953 128.745 84.355 127.844ZM78.9627 139.031C80.1175 138.734 80.1175 143.828 78.9627 144.135C77.8079 144.443 77.7627 139.354 78.9426 139.031H78.9627ZM74.8406 149.078C76.0154 148.734 76.0355 153.688 75.0263 154.13C74.469 154.333 74.0774 153.156 73.972 151.875C73.9368 150.625 74.2531 149.281 74.8406 149.078ZM62.5395 192.417C65.1905 190.75 61.2341 211.047 62.0324 197.068C62.0676 196.458 62.0274 192.729 62.5395 192.417ZM59.7931 228.25C60.6266 227.464 62.404 230.76 61.937 231.219C61.1086 232.031 59.3061 228.719 59.7931 228.25ZM79.7258 308.266C91.0227 328.203 103.329 345.401 115.991 361.401C118.672 363.766 120.38 365.016 123.181 367.49C131.024 373.432 130.391 374.271 127.027 372.609C123.543 371.125 117.975 366.156 115.991 361.401C99.6786 346.255 85.8262 327.422 79.7258 308.266C82.5224 300.938 72.3703 298.984 79.7258 308.266ZM130.004 377.057C130.13 378.344 133.273 379.135 136.351 379.984C139.514 380.724 142.752 381.292 143.029 382.984C140.9 383.005 138.786 382.818 136.692 382.427C133.509 381.672 130.306 379.911 130.004 377.057ZM143.942 387.964C143.661 386.266 149.249 389.391 152.97 391.427C156.786 393.271 158.377 394.953 149.52 391.078C148.687 390.661 144.123 388.896 143.937 387.964H143.942ZM158.894 397.536C158.543 396.271 164.99 396.672 165.462 398.292C165.878 399.599 159.376 399.177 158.889 397.536H158.894ZM171.667 404.693C170.487 401.656 190.234 409.979 176.266 406.208C175.654 406.047 171.913 405.297 171.662 404.693H171.667ZM188.186 411.651C186.695 408.719 213.767 416.479 194.517 413.068C193.583 412.901 188.608 412.526 188.186 411.651ZM210.247 417.609C209.354 416.172 215.846 416.849 220.138 417.443C222.318 417.599 223.919 417.849 223.758 418.089C223.608 418.208 221.64 418.792 216.724 418.38C215.765 418.307 210.76 418.401 210.247 417.609ZM376.015 369.526C374.74 369.443 376.909 364.38 378.194 364.448C379.48 364.51 377.326 369.599 376.015 369.526ZM382.914 361.813C381.749 361.813 382.949 357.844 383.632 357.828C384.822 357.792 383.622 361.786 382.914 361.813Z" fill="#231E20"/>
</g>
<path fill-rule="evenodd" clip-rule="evenodd" d="M73.028 261.599C74.1929 260.198 76.6029 272.552 81.3074 285.094C81.8446 286.677 82.3166 288.302 82.904 289.87C83.5818 291.396 84.2446 292.911 84.9023 294.385L88.5274 302.719C89.411 304.885 90.4403 306.974 91.6252 308.979L93.3925 312.214C95.0444 315.224 96.9071 318.089 98.9858 320.797C100.924 323.026 102.571 324.865 103.66 326.479C105.704 329.521 106.341 332.047 107.245 334.302C108.259 336.453 109.645 338.25 112.878 339.875C111.894 339.365 109.831 328.891 117.608 339.193C117.934 339.568 118.989 346.51 121.384 345.714C117.282 347.068 113.069 343.479 109.188 339.021C108.219 337.896 107.275 336.729 106.381 335.531L104.127 331.719C102.706 329.255 101.441 327.005 100.351 325.396C99.2569 323.719 98.0318 322.089 97.0075 320.292L94.0754 314.766C92.2026 311.031 90.0035 307.536 88.5123 303.833C87.0211 300.135 85.5751 296.698 84.2898 293.563C83.6571 292.005 82.9844 290.568 82.4823 289.188L81.2522 285.323C80.6095 283.359 77.7978 278.401 75.3426 273.422C73.4046 268.292 71.8883 263.151 73.028 261.599Z" fill="#231E20"/>
<path fill-rule="evenodd" clip-rule="evenodd" d="M179.108 378.339C178.235 375.318 200.572 384.469 184.405 380.042C183.622 379.828 179.364 379.187 179.108 378.339Z" fill="#231E20"/>
<path fill-rule="evenodd" clip-rule="evenodd" d="M191.861 384.401C192.855 386.635 203.299 382.141 204.519 385.141C202.741 385.844 200.914 386.344 199.036 386.641C196.124 387.083 192.855 386.88 191.861 384.401Z" fill="#231E20"/>
<path fill-rule="evenodd" clip-rule="evenodd" d="M164.367 380.755C164.206 380.063 162.002 378.495 158.739 376.432C155.626 374.063 151.474 371.156 147.115 368.302C138.701 362.047 129.899 355.167 126.811 352.844C131.164 355.635 125.26 351.906 120.374 349.281C117.864 348.042 115.941 346.74 115.534 347.021C115.123 347.302 116.262 349.161 120.982 352.984L127.81 358.75C131.149 359.807 133.911 360.604 135.517 361.719C137.189 362.755 137.962 363.792 137.897 364.38C137.832 364.974 136.923 365.12 135.201 364.38C134.081 363.865 133.017 363.24 132.013 362.51C130.446 361.464 129.045 360.219 127.81 358.776C128.006 360.094 128.463 361.302 129.181 362.406C129.899 363.51 130.813 364.401 131.922 365.078C133.765 366.229 135.839 366.667 137.721 366.964C141.532 367.516 144.364 367.755 143.822 372.276C144.018 370.589 139.901 371.948 140.282 372.354C144.746 376.995 147.527 375.24 153.346 379.818C153.346 377.76 156.088 379.292 159.01 380.313C161.932 381.333 164.779 382.495 164.367 380.755ZM145.122 373.016C144.69 369.891 161.048 381.016 149.043 375.188C148.511 374.938 145.213 373.615 145.122 373.016Z" fill="#231E20"/>
<path fill-rule="evenodd" clip-rule="evenodd" d="M162.223 46.9115C162.223 46.9115 157.428 53.0156 156.238 52.4531C156.073 52.4323 157.805 44.9427 162.223 46.9115Z" fill="#231E20"/>
<path fill-rule="evenodd" clip-rule="evenodd" d="M149.857 53.7708C150.404 53.9896 150.118 54.8594 149.626 55.6354C149.164 56.4844 148.506 57.2604 148.195 57.1458C147.12 56.7865 149.159 53.4219 149.857 53.7708Z" fill="#231E20"/>
<path fill-rule="evenodd" clip-rule="evenodd" d="M119.119 80.4167C120.083 77.7135 121.59 75.3802 123.633 73.4219C125.004 72.1406 126.043 71.7813 126.44 72.099C126.836 72.4167 126.605 73.4115 125.456 74.8333C124.306 76.25 122.117 77.9427 119.119 80.4167Z" fill="#231E20"/>
<path fill-rule="evenodd" clip-rule="evenodd" d="M389.622 186.943C386.649 181.922 385.048 189.286 385.5 179.635C385.575 178.036 388.452 182.979 390.455 186.865C391.148 188.12 391.635 189.453 391.916 190.865C391.831 191.25 391.464 190.203 389.622 186.943Z" fill="#231E20"/>
<path fill-rule="evenodd" clip-rule="evenodd" d="M396.515 202.547C389.416 196.193 396.365 188.917 396.515 202.547V202.547Z" fill="#231E20"/>
<path fill-rule="evenodd" clip-rule="evenodd" d="M391.344 179.354C382.633 176.193 397.514 181.615 391.344 179.354V179.354Z" fill="#231E20"/>
<path fill-rule="evenodd" clip-rule="evenodd" d="M166.19 387.953C162.534 384.979 153.09 385.099 153.351 379.818C156.012 382.833 162.635 383.724 166.576 384.755C170.558 385.693 172.35 386.422 166.19 387.953Z" fill="#231E20"/>
<path fill-rule="evenodd" clip-rule="evenodd" d="M396.515 202.547C399.96 205.859 399.467 209.427 398.574 210.229C397.56 211.083 396.144 209.354 396.515 202.547Z" fill="#231E20"/>
<path fill-rule="evenodd" clip-rule="evenodd" d="M407.461 188.812C408.917 192.375 410.323 196.031 411.693 199.792C412.401 201.651 412.959 203.557 413.355 205.516L414.696 211.391C416.759 219.297 417.211 227.495 417.748 235.885C417.854 252.542 415.976 270.005 410.293 286.495L408.354 292.776L405.839 298.807C404.097 302.812 402.535 306.938 400.542 310.854C396.325 318.536 392.263 326.391 386.976 333.448C382.246 340.906 376.201 347.302 370.603 354.042C367.55 357.177 364.362 360.167 361.259 363.234C359.677 364.729 358.176 366.333 356.524 367.755L351.453 371.849C338.198 383.292 322.468 392.047 306.15 398.729L293.729 403.25C289.526 404.5 285.219 405.385 280.991 406.443L274.64 407.938L268.193 408.766C263.9 409.266 259.652 409.88 255.41 410.208C246.869 410.177 238.47 410.766 230.286 409.495C226.199 408.958 222.132 408.807 218.195 407.911L206.557 405.281C202.711 404.573 199.096 403.021 195.486 401.844C191.906 400.51 188.321 399.484 184.978 397.906L175.212 393.151C173.636 392.344 172.049 391.62 170.538 390.766L166.18 387.979L171.045 390.547L176.146 392.667L186.479 396.979C190.034 398.172 193.669 399.208 197.304 400.354L202.797 402.036C204.644 402.557 206.547 402.833 208.43 403.245L219.867 405.536C223.733 406.057 227.655 406.328 231.591 406.74L237.531 407.302C239.514 407.391 241.507 407.302 243.505 407.302L255.586 407.182L267.701 405.792L273.801 405.068L279.821 403.708L291.941 400.896L303.791 396.75L309.74 394.625L315.464 391.891C319.27 390.021 323.161 388.276 326.907 386.266C334.116 381.682 341.683 377.552 348.255 371.901L353.351 367.896L355.897 365.885L358.242 363.625L367.585 354.526C370.638 351.443 373.274 347.917 376.121 344.615L380.288 339.568C381.563 337.797 382.758 335.953 383.993 334.146C394.276 319.995 401.566 303.792 407.019 287.396L410.629 274.922C411.558 270.714 412.2 266.438 412.959 262.234C413.31 260.13 413.707 258.036 413.998 255.932L414.43 249.557C414.661 245.312 415.087 241.13 415.082 236.932C414.646 228.521 414.696 220.26 413.019 212.198C412.271 208.177 411.894 204.167 410.79 200.286C409.69 196.406 408.565 192.625 407.461 188.812Z" fill="#231E20"/>
<path fill-rule="evenodd" clip-rule="evenodd" d="M356.454 345.339C355.239 345.13 356.951 340.76 358.01 340.76C359.261 340.917 357.724 345.526 356.454 345.339Z" fill="#231E20"/>
<path fill-rule="evenodd" clip-rule="evenodd" d="M401.807 229.391C400.587 230.25 400.216 224.484 400.331 219.969C400 215.453 400.331 212.089 401.732 217.823C401.998 217.578 403.339 228.25 401.807 229.391Z" fill="#231E20"/>
<path fill-rule="evenodd" clip-rule="evenodd" d="M398.95 194.979C398.137 195.839 395.496 192.021 396.335 191.13C397.178 190.24 399.764 194.068 398.95 194.979Z" fill="#231E20"/>
<path fill-rule="evenodd" clip-rule="evenodd" d="M56.7957 170.016C57.9103 169.427 57.9705 171.786 57.5136 175.255C57.1521 178.75 55.8317 183.276 55.3798 187.37C54.1045 195.443 52.4978 201.109 53.3463 189.453C53.3463 189.318 53.3915 188.099 53.4518 186.318C53.497 185.417 53.5472 184.401 53.6024 183.297C53.7681 182.214 53.9388 181.036 54.1145 179.896C54.8626 175.25 55.8517 170.505 56.7957 170.016Z" fill="#231E20"/>
<path fill-rule="evenodd" clip-rule="evenodd" d="M381.674 312.844C381.674 312.844 381.859 312.328 382.256 311.417L383.948 307.63L386.398 302.24C387.242 300.229 387.92 297.948 388.733 295.714C389.551 293.484 390.325 291.198 391.088 289.042L392.207 285.88L392.981 282.875C393.945 279.068 394.693 276.219 394.969 275.307C395.607 272.917 396.099 270.495 396.445 268.042C396.882 264.38 397.399 259.906 398.052 255.49C398.488 253.307 398.539 251.068 398.724 248.979C398.905 246.896 399.126 244.917 399.397 243.219C399.945 239.786 400.733 237.297 401.737 236.635C401.988 236.505 401.988 240.484 401.943 244.943C401.898 249.396 401.883 254.339 401.421 255.786C400.713 259.344 400.08 262.568 399.463 265.693C399.146 267.25 398.835 268.786 398.534 270.313C398.077 271.807 397.62 273.292 397.158 274.802L394.246 284.38C393.257 287.833 391.515 291.313 389.938 295.448C388.261 300.724 383.808 312.469 381.674 312.844Z" fill="#231E20"/>
<path fill-rule="evenodd" clip-rule="evenodd" d="M49.9824 205.703C51.6593 204.38 51.8351 213.87 51.5589 221.385C51.9254 228.896 51.5589 234.625 50.0878 225.557C49.4652 224.969 48.6368 206.828 49.9824 205.703Z" fill="#231E20"/>
<path fill-rule="evenodd" clip-rule="evenodd" d="M49.9874 243.885C48.4008 245.938 56.5748 255.557 54.471 258.177C53.1104 256.495 51.9205 254.682 50.9012 252.755C49.3297 249.74 48.2 246.057 49.9874 243.885Z" fill="#231E20"/>
<path fill-rule="evenodd" clip-rule="evenodd" d="M55.6509 276.734C56.3086 275.703 58.6986 278.708 58.4023 279.292C57.7597 280.349 55.2543 277.365 55.6509 276.734Z" fill="#231E20"/>
<path fill-rule="evenodd" clip-rule="evenodd" d="M59.04 286.115C59.6525 284.974 63.9755 290.042 63.2173 291.542C62.6249 292.776 58.2718 287.625 59.04 286.115Z" fill="#231E20"/>
<path fill-rule="evenodd" clip-rule="evenodd" d="M64.7035 299.906C64.9244 299.542 68.5494 307.974 72.9828 316.964L80.2329 329.615L81.7793 332.297C82.3316 333.089 82.8438 333.818 83.3107 334.479L85.4245 337.479C95.8778 352.089 77.8079 328.969 75.9501 323.974C75.5133 323.208 74.3736 321.719 72.9427 319.839L70.603 316.729C69.8599 315.573 69.167 314.318 68.4641 313.057C65.6926 308.021 63.4081 302.609 64.7035 299.906Z" fill="#231E20"/>
<path fill-rule="evenodd" clip-rule="evenodd" d="M87.9198 337.547C88.1457 336.375 91.5398 338.161 91.4042 338.849C91.1934 340.047 87.7943 338.245 87.9198 337.547Z" fill="#231E20"/>
<path fill-rule="evenodd" clip-rule="evenodd" d="M407.461 188.813C404.232 187.005 404.232 184.193 404.9 183.188C405.568 182.182 407.672 182.969 407.461 188.813Z" fill="#231E20"/>
<path fill-rule="evenodd" clip-rule="evenodd" d="M88.7131 347.781C88.688 345.333 104.976 362.995 93.1666 352.75C92.8151 352.437 91.6352 351.464 90.5557 350.448C89.4762 349.432 88.6478 348.229 88.7131 347.781Z" fill="#231E20"/>
<path fill-rule="evenodd" clip-rule="evenodd" d="M104.83 367.141C104.83 364.333 122.594 380.547 109.911 371.479C109.158 370.953 104.83 368.052 104.83 367.141Z" fill="#231E20"/>
<path fill-rule="evenodd" clip-rule="evenodd" d="M117.844 380.406C117.844 380.406 125.626 382.172 125.772 383.568C125.4 383.719 125.019 383.812 124.627 383.854C123.769 383.995 122.91 384.026 122.046 383.958C120.128 383.797 118.105 382.932 117.844 380.406Z" fill="#231E20"/>
</svg>
